<?xml version="1.0" standalone="no"?>
<!DOCTYPE svg PUBLIC "-//W3C//DTD SVG 20010904//EN"
 "http://www.w3.org/TR/2001/REC-SVG-20010904/DTD/svg10.dtd">
<svg version="1.0" xmlns="http://www.w3.org/2000/svg"
 width="512.000000pt" height="512.000000pt" viewBox="0 0 512.000000 512.000000"
 preserveAspectRatio="xMidYMid meet">

<g transform="translate(0.000000,512.000000) scale(0.100000,-0.100000)"
fill="#000000" stroke="none">
<path d="M1300 3820 l0 -210 212 0 213 0 -213 -213 -212 -212 0 -1048 0 -1047
240 0 240 0 0 420 0 420 863 2 862 3 68 33 c90 44 165 119 208 207 l34 70 0
735 0 735 -28 58 c-62 125 -187 223 -316 247 -34 6 -445 10 -1112 10 l-1059 0
0 -210z m2040 -840 l0 -630 -597 0 -598 0 -182 -182 -183 -183 0 813 0 812
780 0 780 0 0 -630z"/>
</g>
</svg>
