<svg xmlns="http://www.w3.org/2000/svg" viewBox="0 0 310 340"><g data-name="Layer 1"><path fill="#aeaeae" d="M30.73 215.09l-4-.38-.83 8.49 4 .39a23.06 23.06 0 001.69 6.93 22.08 22.08 0 001.14 2.35l-3.12 2.57L35 242l3.12-2.57A23.1 23.1 0 0046.73 244l-.39 4 8.49.82.39-4A23.28 23.28 0 0064.5 242l2.57 3.13 6.58-5.43-2.56-3.12A23.44 23.44 0 0075.65 228l4 .39.82-8.49-4-.39a23.52 23.52 0 00-1.7-6.94 21.94 21.94 0 00-1.14-2.34l3.13-2.58-5.43-6.58-3.12 2.57-.06 0c-.52-.44-1.06-.85-1.61-1.23a23.2 23.2 0 00-6.89-3.28l.39-4-8.49-.82-.39 4a23.22 23.22 0 00-9.28 2.83L39.31 198l-6.59 5.42 2.57 3.12A23.44 23.44 0 0030.73 215.09zm11.49-6.85a17.25 17.25 0 0120.61-1 14.68 14.68 0 011.61 1.24 16.54 16.54 0 012.07 2.11 17.26 17.26 0 11-24.29-2.35zM25.26 127.81l-2.78-.26-.57 5.86 2.78.27a16.08 16.08 0 001.17 4.79 17.28 17.28 0 00.79 1.62l-2.16 1.78 3.75 4.55 2.16-1.78a16 16 0 005.91 3.15L36 150.57l5.87.57.27-2.78a16 16 0 006.41-2l1.77 2.16 4.55-3.75-1.77-2.15a16.17 16.17 0 003.15-5.92l2.78.27.57-5.86-2.78-.27a15.86 15.86 0 00-1.18-4.8 17 17 0 00-.78-1.61l2.16-1.78-3.75-4.55-2.15 1.78 0 0c-.36-.3-.73-.59-1.11-.85a16.12 16.12 0 00-4.76-2.26l.27-2.79-5.87-.56-.27 2.78a16.17 16.17 0 00-6.41 2L31.19 116l-4.55 3.74 1.77 2.16A16 16 0 0025.26 127.81zm7.94-4.73a11.92 11.92 0 0114.24-.69 12.57 12.57 0 011.11.85A13.17 13.17 0 0150 124.7a11.92 11.92 0 11-16.78-1.62zM38.36 72.32L37 72.19l-.29 2.94 1.4.14a8.16 8.16 0 00.58 2.41c.12.27.25.54.4.81L38 79.38l1.88 2.29 1.08-.9a8.09 8.09 0 003 1.59l-.13 1.4 2.94.28.14-1.4a8 8 0 003.22-1L51 82.74l2.29-1.88-.89-1.08a8.21 8.21 0 001.58-3l1.39.13L55.63 74l-1.4-.14a7.88 7.88 0 00-.59-2.41 7.48 7.48 0 00-.39-.81l1.08-.89-1.88-2.29-1.08.9 0 0c-.18-.15-.37-.3-.56-.43a8.2 8.2 0 00-2.39-1.14l.13-1.39-2.94-.29-.14 1.4a8 8 0 00-3.22 1l-.89-1.08-2.29 1.88.89 1.08A8.21 8.21 0 0038.36 72.32zm4-2.38a6 6 0 017.15-.34 5.57 5.57 0 01.56.43 6.22 6.22 0 01.72.73 6.53 6.53 0 01.91 1.51 6 6 0 01-10.16 6.1 6.53 6.53 0 01-.91-1.51A6 6 0 0142.35 69.94zM59.85 55.53l-.91-.09-.19 1.93.91.09A5.48 5.48 0 0060.05 59a4.43 4.43 0 00.26.54l-.71.58 1.23 1.5.71-.59a5.19 5.19 0 002 1L63.4 63l1.93.19.09-.91a5.45 5.45 0 002.11-.65l.58.71 1.5-1.23L69 60.41a5.19 5.19 0 001-1.95l.91.09.19-1.93-.91-.09A5.48 5.48 0 0069.86 55c-.08-.18-.16-.36-.26-.54l.71-.58-1.23-1.5-.71.59h0a3.17 3.17 0 00-.36-.28 5.16 5.16 0 00-1.57-.75l.09-.91-1.93-.19-.09.91a5.45 5.45 0 00-2.11.65l-.58-.71-1.5 1.23.59.71A5.27 5.27 0 0059.85 55.53zM62.46 54a3.94 3.94 0 014.69-.23c.12.09.25.18.36.28a4 4 0 011.07 1.47 3.92 3.92 0 01-6.65 4 4.22 4.22 0 01-.6-1A3.94 3.94 0 0162.46 54z"/><path fill="#aeaeae" d="M5.31,150.67l-1.62-.16-.33,3.42,1.62.16a9.56,9.56,0,0,0,.68,2.8c.14.32.29.63.46.94l-1.26,1,2.19,2.65,1.26-1a9.36,9.36,0,0,0,3.45,1.83L11.6,164l3.43.33.15-1.62a9.39,9.39,0,0,0,3.75-1.14l1,1.25,2.66-2.18-1-1.26a9.39,9.39,0,0,0,1.84-3.45L25,156l.33-3.42-1.62-.16a9.42,9.42,0,0,0-.68-2.79c-.14-.32-.29-.64-.46-.95l1.26-1L21.68,145l-1.26,1a0,0,0,0,0,0,0,7.51,7.51,0,0,0-.65-.5A9.33,9.33,0,0,0,17,144.22l.16-1.63-3.43-.33-.15,1.63A9.19,9.19,0,0,0,9.81,145l-1-1.26L6.11,146l1,1.26A9.5,9.5,0,0,0,5.31,150.67Zm4.63-2.77a7,7,0,0,1,8.31-.4,5.34,5.34,0,0,1,.65.5,6.75,6.75,0,0,1,.84.85,6.84,6.84,0,0,1,1.05,1.75A7,7,0,0,1,9,157.69a6.88,6.88,0,0,1-1.06-1.75A7,7,0,0,1,9.94,147.9Z"/><path fill="#aeaeae" d="M40.43 190.78c.29 0 .58 0 .87 0l.57 1.49a14 14 0 001.45-.16l.25-1.57.85-.17.84 1.35c.47-.12.94-.26 1.39-.41l0-1.6q.42-.15.81-.33l1.08 1.18c.43-.21.87-.42 1.29-.66l-.34-1.56c.25-.15.49-.31.73-.47l1.27 1c.4-.29.78-.59 1.15-.9L52 186.44c.22-.19.44-.39.64-.6l1.43.72c.33-.35.65-.72 1-1.1l-.88-1.33c.18-.23.35-.46.52-.7l1.53.44a14.25 14.25 0 00.75-1.25l-1.11-1.14c.13-.26.26-.52.38-.79l1.58.15c.19-.45.36-.9.51-1.37l-1.3-.92c.08-.28.16-.56.23-.84l1.58-.15c.1-.47.19-.95.25-1.44l-1.45-.66c0-.15 0-.29 0-.44l0-.43 1.53-.44c0-.49 0-1 0-1.45l-1.54-.4c0-.29-.06-.57-.1-.86l1.43-.71c-.08-.48-.18-1-.29-1.43l-1.59-.1c-.07-.28-.16-.56-.25-.83l1.27-1c-.17-.46-.34-.91-.54-1.35l-1.59.2c-.12-.27-.26-.52-.4-.78l1.08-1.18c-.25-.42-.51-.83-.79-1.23l-1.52.49c-.17-.24-.35-.47-.53-.69l.84-1.35c-.32-.37-.66-.73-1-1.07l-1.41.75c-.21-.19-.43-.39-.65-.57l.58-1.49c-.38-.3-.78-.59-1.18-.86l-1.24 1c-.25-.16-.49-.31-.75-.45l.3-1.57q-.64-.33-1.32-.63l-1 1.21-.82-.3V156c-.46-.15-.93-.27-1.41-.38l-.8 1.38c-.28-.06-.57-.1-.86-.15l-.29-1.56-.72-.08-.73 0-.53 1.5c-.3 0-.59 0-.88 0l-.57-1.49c-.49 0-1 .09-1.45.16l-.24 1.57-.86.17L36 155.7c-.47.12-.94.26-1.39.42l0 1.59q-.42.15-.81.33l-1.07-1.18c-.44.21-.88.43-1.3.67l.34 1.56c-.25.15-.49.3-.73.47l-1.27-1c-.4.28-.78.58-1.15.89l.62 1.47c-.22.19-.43.39-.64.6l-1.43-.71c-.33.34-.65.71-1 1.09l.88 1.33c-.18.23-.35.46-.52.7L25 163.53c-.27.41-.51.83-.75 1.25l1.11 1.15c-.13.25-.26.52-.38.78l-1.59-.15c-.18.45-.35.91-.5 1.37l1.3.92c-.08.28-.16.56-.22.84l-1.59.15c-.1.47-.19.95-.25 1.44l1.45.67c0 .14 0 .28 0 .43l0 .43-1.53.44c0 .49 0 1 0 1.46l1.55.39q0 .43.09.87l-1.43.7c.08.48.18 1 .29 1.43l1.59.1c.07.28.16.56.25.84l-1.27 1c.17.46.34.91.54 1.36l1.59-.2c.12.26.26.52.4.77l-1.08 1.18c.25.42.51.83.79 1.23l1.52-.48c.17.23.35.46.54.68l-.84 1.36c.32.36.65.72 1 1.06L29 186.2c.21.2.43.39.65.58L29 188.27c.38.3.78.58 1.18.85l1.24-1c.25.15.49.3.75.44l-.3 1.57q.65.35 1.32.63l1-1.21c.27.11.55.21.82.3v1.59a13.3 13.3 0 001.41.38l.8-1.38c.28.06.57.11.86.15l.29 1.56.73.08.73 0zm-10.39-7l7.26-6.22a5.14 5.14 0 00.85.59 5.07 5.07 0 001.29.5l-.74 9.53A14.56 14.56 0 0130 183.77zm-4-10.42l9.53.74a5 5 0 00.75 2.28L29 182.59A14.52 14.52 0 0126 173.35zm4.52-10.21l6.22 7.26a5 5 0 00-1.09 2.14l-9.53-.74A14.5 14.5 0 0130.54 163.14zm10.42-4l-.74 9.53a5.17 5.17 0 00-2.28.75l-6.22-7.26A14.59 14.59 0 0141 159.11zm10.21 4.53l-7.26 6.22a5.13 5.13 0 00-2.14-1.09l.74-9.54A14.57 14.57 0 0151.17 163.64zm4 10.42l-9.53-.74c0-.07 0-.14 0-.2a5.17 5.17 0 00-.73-2.09l7.26-6.21A14.5 14.5 0 0155.19 174.06zm-4.52 10.21L44.46 177a5.19 5.19 0 001.09-2.14l9.52.74A14.5 14.5 0 0150.67 184.27zm-10.42 4l.74-9.53.2 0a5.1 5.1 0 002.09-.72l6.21 7.26A14.52 14.52 0 0140.25 188.29zM37.79 110.79h.61l.39 1c.34 0 .67-.06 1-.11l.17-1.09a5.6 5.6 0 00.59-.12l.58.94c.32-.09.64-.18 1-.29l0-1.1.55-.23.74.82c.31-.15.61-.3.9-.46L44 109.09l.51-.32.88.66c.27-.2.53-.4.79-.62l-.43-1 .44-.41 1 .49a9.58 9.58 0 00.67-.76l-.61-.91a5.6 5.6 0 00.36-.49l1.06.3c.18-.27.35-.56.51-.86l-.76-.79c.09-.17.18-.36.26-.54l1.09.1c.13-.31.25-.62.35-.94l-.9-.64c.06-.19.11-.38.16-.58l1.09-.1c.07-.32.13-.65.17-1l-1-.46c0-.1 0-.2 0-.3s0-.2 0-.3l1.06-.3c0-.34 0-.67 0-1L49.66 98l-.06-.59 1-.49c0-.33-.12-.66-.2-1l-1.1-.06c-.05-.2-.11-.39-.17-.58l.88-.66c-.12-.32-.24-.63-.38-.93l-1.09.13c-.09-.18-.18-.36-.28-.53l.74-.81c-.17-.29-.35-.58-.54-.85l-1 .33L47 91.53l.58-.93c-.22-.25-.45-.5-.68-.73l-1 .52c-.14-.14-.29-.27-.44-.4l.4-1c-.27-.21-.54-.4-.82-.59l-.86.69c-.16-.11-.33-.21-.51-.31l.2-1.08a9.3 9.3 0 00-.9-.43l-.72.83a5.37 5.37 0 00-.56-.21v-1.1c-.32-.1-.65-.19-1-.26l-.55 1-.6-.1-.2-1.08-.5 0-.5 0-.37 1h-.6l-.4-1c-.33 0-.66.06-1 .11l-.17 1.08-.59.12-.58-.93a9.72 9.72 0 00-1 .29l0 1.1-.56.22-.74-.81c-.3.14-.6.29-.89.46l.23 1.08-.5.32-.88-.66a9.36 9.36 0 00-.79.62l.42 1c-.15.13-.29.27-.43.41l-1-.49q-.34.36-.66.75l.6.92c-.12.16-.24.32-.35.49L27.18 92a9.52 9.52 0 00-.52.87l.77.78c-.09.18-.18.36-.26.55l-1.1-.1c-.13.3-.24.62-.35.94l.9.63c-.06.2-.11.39-.15.58l-1.1.11c-.07.32-.13.65-.17 1l1 .46 0 .3c0 .1 0 .2 0 .3l-1.06.3c0 .33 0 .67 0 1l1.07.27q0 .3.06.6l-1 .49c.06.33.13.66.2 1l1.1.07c.05.2.11.39.17.58l-.87.66c.11.32.24.63.37.93l1.1-.13c.08.18.17.35.27.53l-.74.81c.17.29.35.58.54.85l1.05-.33c.12.16.24.32.37.47l-.58.94c.22.25.45.49.69.73l1-.52.45.4-.4 1c.26.2.53.4.81.59l.86-.69.52.31-.21 1.08c.3.16.6.3.91.43l.71-.83.57.21v1.1c.32.1.64.18 1 .26l.55-1 .59.1.2 1.08.5 0 .51 0zM30.63 106l5-4.29a2.9 2.9 0 00.58.41 3.27 3.27 0 00.9.34L36.61 109A10 10 0 0130.63 106zm-2.78-7.18l6.58.51a3.47 3.47 0 00.51 1.57l-5 4.29A10 10 0 0127.85 98.77zm3.12-7l4.29 5a3.52 3.52 0 00-.75 1.48l-6.57-.51A10 10 0 0131 91.72zm7.19-2.78l-.51 6.58a3.43 3.43 0 00-1.57.51l-4.29-5A10.07 10.07 0 0138.16 88.94zm7.05 3.13l-5 4.29a3.47 3.47 0 00-1.48-.75L39.23 89A10 10 0 0145.21 92.07zM48 99.25l-6.57-.51a.57.57 0 010-.13 3.55 3.55 0 00-.51-1.44l5-4.29A10 10 0 0148 99.25zm-3.12 7l-4.29-5a3.43 3.43 0 00.76-1.48l6.57.51A10 10 0 0144.86 106.3zm-7.19 2.77l.51-6.57h.14a3.48 3.48 0 001.44-.5l4.29 5A10.09 10.09 0 0137.67 109.07zM17.35 207.75h.49l.33.84a7.8 7.8 0 00.83-.09l.13-.89.49-.1.48.77c.27-.07.53-.15.79-.24l0-.9.46-.19.61.67c.26-.12.5-.24.74-.38l-.19-.89.41-.26.73.54c.22-.16.44-.33.65-.51l-.35-.83.36-.34.81.4a6.42 6.42 0 00.55-.62l-.5-.76c.11-.13.2-.26.3-.39l.87.24c.15-.23.29-.46.42-.71l-.63-.65a4.71 4.71 0 00.22-.45l.9.09c.11-.26.2-.52.29-.78l-.74-.52c.05-.16.09-.32.13-.48l.9-.09c.06-.26.1-.54.14-.81l-.82-.38a2 2 0 010-.25 2 2 0 000-.25l.88-.24a7.61 7.61 0 000-.83l-.87-.23c0-.16 0-.33-.06-.49l.82-.4c0-.28-.1-.55-.17-.82l-.9-.05c0-.16-.09-.32-.15-.48l.73-.54c-.1-.26-.2-.52-.31-.77l-.9.11c-.07-.15-.15-.3-.23-.44l.61-.67c-.14-.24-.29-.47-.45-.7l-.86.28c-.1-.14-.2-.27-.31-.4l.48-.77a8.08 8.08 0 00-.57-.6l-.8.43a3.8 3.8 0 00-.37-.33l.33-.85-.67-.49-.71.57-.42-.25.17-.9c-.25-.13-.5-.24-.75-.35l-.59.68-.47-.17v-.91c-.26-.08-.53-.15-.8-.21l-.45.79c-.16 0-.33-.06-.49-.09l-.17-.89-.41 0-.42 0-.3.85h-.49l-.33-.85c-.28 0-.55.05-.82.09l-.14.9c-.17 0-.33.06-.49.09l-.48-.77c-.27.07-.53.15-.79.24l0 .91-.46.18-.61-.67-.74.38.19.89L12 190l-.73-.55c-.22.16-.44.33-.65.51l.35.84-.36.34-.81-.41c-.19.2-.38.41-.55.62l.5.76-.3.4-.87-.25c-.15.23-.29.47-.42.71l.63.65c-.08.15-.15.3-.22.45l-.9-.08c-.11.25-.2.51-.29.77l.74.53c-.05.16-.09.32-.13.48l-.9.08c0 .27-.1.54-.14.82l.83.38 0 .24c0 .09 0 .17 0 .25l-.88.25c0 .28 0 .56 0 .83l.88.22c0 .17 0 .33.05.5l-.81.4c0 .27.1.54.16.81l.9.06.15.47-.73.55c.1.26.2.52.31.77l.91-.12c.07.15.14.3.22.44l-.61.68c.14.23.29.47.45.69l.86-.27.31.39-.48.77c.18.21.37.41.57.61l.8-.43.37.33-.33.85c.22.17.44.33.67.48l.71-.56.42.25-.17.89q.38.2.75.36l.59-.69.47.18v.9l.8.22.45-.79.49.08.17.89.41.05.42 0zm-5.91-4l4.13-3.53a3.14 3.14 0 00.48.33 2.78 2.78 0 00.74.29l-.42 5.42A8.21 8.21 0 0111.44 203.76zm-2.29-5.92l5.42.42a3 3 0 00.43 1.3l-4.14 3.53A8.25 8.25 0 019.15 197.84zM11.72 192l3.54 4.13a2.89 2.89 0 00-.62 1.22L9.22 197A8.25 8.25 0 0111.72 192zm5.93-2.29l-.42 5.42a2.81 2.81 0 00-1.3.42l-3.54-4.13A8.28 8.28 0 0117.65 189.74zm5.81 2.57l-4.13 3.54a2.83 2.83 0 00-1.22-.62l.42-5.43A8.32 8.32 0 0123.46 192.31zm2.29 5.93l-5.42-.42s0-.08 0-.11a2.82 2.82 0 00-.42-1.19L24 193A8.28 8.28 0 0125.75 198.24zm-2.57 5.81l-3.54-4.13a2.83 2.83 0 00.62-1.22l5.42.42A8.25 8.25 0 0123.18 204.05zm-5.93 2.29l.42-5.42h.12a2.83 2.83 0 001.18-.42l3.54 4.13A8.23 8.23 0 0117.25 206.34zM78.68 196.82a6.26 6.26 0 00.75 0l.5 1.29c.42 0 .83-.08 1.25-.14l.21-1.35.74-.15.72 1.16c.4-.1.81-.22 1.2-.35l0-1.38.7-.28.92 1c.38-.18.76-.37 1.12-.57l-.29-1.35.63-.4 1.1.82c.34-.24.67-.5 1-.77l-.54-1.27c.19-.16.37-.33.55-.51l1.23.61c.29-.3.57-.61.84-.94l-.76-1.15c.15-.19.3-.4.44-.6l1.33.38c.23-.35.44-.71.64-1.08l-1-1c.12-.22.23-.45.33-.68l1.37.13c.16-.39.3-.78.44-1.18L93 186.28c.07-.24.14-.49.2-.73l1.37-.13c.08-.41.16-.82.21-1.24l-1.25-.57 0-.38 0-.37 1.32-.38c0-.42 0-.84 0-1.26l-1.33-.34c0-.25 0-.49-.08-.74l1.23-.61c-.07-.42-.15-.83-.25-1.24l-1.37-.08c-.07-.24-.14-.49-.22-.72l1.1-.83c-.14-.39-.3-.78-.47-1.16l-1.37.16c-.1-.22-.22-.44-.34-.66l.92-1c-.21-.36-.43-.72-.67-1.06l-1.31.42c-.15-.21-.31-.4-.47-.6l.73-1.16c-.28-.32-.57-.63-.86-.92l-1.22.65-.56-.5.5-1.29c-.33-.26-.67-.5-1-.74l-1.07.86c-.21-.13-.42-.26-.64-.38l.25-1.36c-.37-.19-.75-.37-1.13-.54l-.9 1-.7-.26v-1.37c-.4-.12-.8-.23-1.22-.33l-.68 1.2-.75-.13-.25-1.35c-.21 0-.41 0-.62-.06l-.63 0-.46 1.3c-.25 0-.51 0-.75 0l-.5-1.29c-.42 0-.84.08-1.25.14l-.21 1.36c-.25 0-.49.09-.74.15l-.72-1.17a11.88 11.88 0 00-1.2.36l0 1.37-.7.28-.93-1c-.38.18-.75.37-1.11.58l.29 1.34c-.21.13-.42.26-.63.41l-1.1-.83c-.34.24-.67.5-1 .77L69 171.1c-.19.16-.37.34-.55.51L67.24 171c-.29.3-.56.62-.83.94l.76 1.15q-.24.3-.45.6l-1.32-.37c-.23.34-.44.71-.64 1.07l.95 1c-.11.22-.22.45-.32.68L64 175.93c-.16.39-.31.78-.44 1.18l1.12.8c-.07.24-.13.48-.19.72l-1.37.13c-.08.41-.16.82-.21 1.24l1.25.58c0 .12 0 .24 0 .37s0 .25 0 .37l-1.33.38q0 .63 0 1.26l1.33.34c0 .25 0 .5.08.74l-1.24.61c.07.42.15.83.25 1.24l1.38.08c.06.24.13.49.21.72l-1.09.83a11.9 11.9 0 00.47 1.17l1.36-.17c.11.22.22.44.35.66l-.93 1c.22.36.44.72.68 1.06l1.31-.42c.15.21.3.41.46.6l-.72 1.17c.27.31.56.62.86.91l1.21-.65c.18.18.37.34.56.5l-.49 1.29c.32.26.66.5 1 .74l1.07-.86.65.38-.26 1.36q.56.28 1.14.54l.89-1 .71.26v1.37c.4.12.8.23 1.21.33l.69-1.2a6 6 0 00.74.13L77 198l.63.07.63 0zm-9-6L76 185.41a4.56 4.56 0 00.73.51 4.12 4.12 0 001.12.43l-.64 8.22A12.49 12.49 0 0169.72 190.78zm-3.48-9l8.23.64a4.37 4.37 0 00.64 2l-6.26 5.37A12.6 12.6 0 0166.24 181.79zM70.15 173l5.36 6.26a4.51 4.51 0 00-.94 1.85l-8.22-.64A12.5 12.5 0 0170.15 173zm9-3.48l-.64 8.23a4.37 4.37 0 00-2 .64l-5.36-6.27A12.55 12.55 0 0179.14 169.5zM88 173.41l-6.27 5.36a4.4 4.4 0 00-1.85-.94l.64-8.22A12.5 12.5 0 0188 173.41zm3.47 9l-8.22-.64c0-.06 0-.12 0-.17a4.26 4.26 0 00-.63-1.8l6.27-5.36A12.49 12.49 0 0191.42 182.4zm-3.9 8.81l-5.36-6.27a4.46 4.46 0 00.94-1.85l8.22.64A12.58 12.58 0 0187.52 191.21zm-9 3.47l.64-8.23h.17a4.54 4.54 0 001.8-.62l5.36 6.26A12.59 12.59 0 0178.53 194.68z"/><rect width="77.79" height="108.65" x="40.8" y="58.01" fill="#4c4c4c"/><rect width="37.34" height="1.42" x="46.48" y="64.27" fill="#ff7443"/><rect width="11.97" height="1.42" x="46.48" y="67.78" fill="#4ac1d9"/><rect width="19.29" height="1.42" x="46.48" y="71.28" fill="#fff"/><rect width="11.26" height="1.42" x="55.46" y="74.78" fill="#4ac1d9"/><rect width="11.26" height="1.42" x="55.46" y="78.28" fill="#4ac1d9"/><rect width="10.95" height="1.42" x="63.27" y="81.79" fill="#4ac1d9"/><rect width="20.41" height="1.42" x="62.47" y="67.78" fill="#fff"/><rect width="9.75" height="1.42" x="85.78" y="67.78" fill="#fff"/><rect width="13.16" height="1.42" x="99.23" y="67.78" fill="#fff"/><rect width="11.48" height="1.42" x="69" y="71.28" fill="#4ac1d9"/><rect width="6.57" height="1.42" x="70.15" y="74.78" fill="#fff"/><rect width="11.26" height="1.42" x="70.15" y="78.28" fill="#fff"/><rect width="12.51" height="1.42" x="79.85" y="74.78" fill="#fff"/><rect width="6.56" height="1.42" x="94.87" y="74.78" fill="#fff"/><rect width="8.13" height="1.42" x="104.25" y="74.78" fill="#fff"/><rect width="14.22" height="1.42" x="83.92" y="78.28" fill="#fff"/><rect width="4.25" height="1.42" x="100.26" y="78.28" fill="#fff"/><rect width="8.14" height="1.42" x="77.35" y="81.79" fill="#fff"/><rect width="11.26" height="1.42" x="55.46" y="88.79" fill="#4ac1d9"/><rect width="11.26" height="1.42" x="55.46" y="92.3" fill="#4ac1d9"/><rect width="6.57" height="1.42" x="70.15" y="88.79" fill="#fff"/><rect width="10.14" height="1.42" x="70.15" y="92.3" fill="#fff"/><rect width="9.62" height="1.42" x="79.85" y="88.79" fill="#fff"/><rect width="5.06" height="1.42" x="91.4" y="88.79" fill="#fff"/><rect width="6.26" height="1.42" x="98.62" y="88.79" fill="#fff"/><rect width="11.27" height="1.42" x="90.16" y="92.3" fill="#fff"/><rect width="11.26" height="1.42" x="55.46" y="95.8" fill="#4ac1d9"/><rect width="11.26" height="1.42" x="55.46" y="99.3" fill="#4ac1d9"/><rect width="6.57" height="1.42" x="70.15" y="95.8" fill="#fff"/><rect width="20.65" height="1.42" x="70.15" y="99.3" fill="#fff"/><rect width="12.51" height="1.42" x="79.85" y="95.8" fill="#fff"/><rect width="6.56" height="1.42" x="94.87" y="95.8" fill="#fff"/><rect width="8.13" height="1.42" x="104.25" y="95.8" fill="#fff"/><rect width="11.58" height="1.42" x="93.3" y="99.3" fill="#fff"/><rect width="4.79" height="1.42" x="82.55" y="92.3" fill="#fff"/><rect width="11.97" height="1.42" x="46.48" y="106.31" fill="#4ac1d9"/><rect width="19.29" height="1.42" x="46.48" y="109.81" fill="#fff"/><rect width="11.26" height="1.42" x="55.46" y="113.31" fill="#4ac1d9"/><rect width="11.26" height="1.43" x="55.46" y="116.81" fill="#4ac1d9"/><rect width="10.95" height="1.42" x="63.27" y="120.32" fill="#4ac1d9"/><rect width="11.32" height="1.42" x="62.47" y="106.31" fill="#fff"/><rect width="5.72" height="1.42" x="76.69" y="106.31" fill="#fff"/><rect width="18.18" height="1.42" x="86.11" y="106.31" fill="#fff"/><rect width="11.48" height="1.42" x="69" y="109.81" fill="#4ac1d9"/><rect width="12.83" height="1.42" x="70.15" y="113.31" fill="#fff"/><rect width="8.76" height="1.43" x="70.15" y="116.81" fill="#fff"/><rect width="9.53" height="1.42" x="86.11" y="113.31" fill="#fff"/><rect width="16.72" height="1.43" x="81.41" y="116.81" fill="#fff"/><rect width="4.25" height="1.43" x="100.26" y="116.81" fill="#fff"/><rect width="8.14" height="1.42" x="77.35" y="120.32" fill="#fff"/><rect width="15.16" height="1.42" x="87.3" y="120.32" fill="#fff"/><rect width="4.53" height="1.42" x="104.71" y="120.32" fill="#fff"/><rect width="11.26" height="1.42" x="55.46" y="127.32" fill="#4ac1d9"/><rect width="11.26" height="1.42" x="55.46" y="130.83" fill="#4ac1d9"/><rect width="18.54" height="1.42" x="70.15" y="127.32" fill="#fff"/><rect width="10.14" height="1.42" x="70.15" y="130.83" fill="#fff"/><rect width="5.06" height="1.42" x="91.4" y="127.32" fill="#fff"/><rect width="6.26" height="1.42" x="98.62" y="127.32" fill="#fff"/><rect width="11.27" height="1.42" x="90.16" y="130.83" fill="#fff"/><rect width="4.79" height="1.42" x="82.55" y="130.83" fill="#fff"/><rect width="11.97" height="1.42" x="46.48" y="136.57" fill="#4ac1d9"/><rect width="19.29" height="1.42" x="46.48" y="140.07" fill="#fff"/><rect width="11.26" height="1.42" x="55.46" y="143.58" fill="#4ac1d9"/><rect width="11.26" height="1.42" x="55.46" y="147.08" fill="#4ac1d9"/><rect width="10.95" height="1.42" x="63.27" y="150.58" fill="#4ac1d9"/><rect width="11.32" height="1.42" x="62.47" y="136.57" fill="#fff"/><rect width="5.72" height="1.42" x="76.69" y="136.57" fill="#fff"/><rect width="26.27" height="1.42" x="86.11" y="136.57" fill="#fff"/><rect width="11.48" height="1.42" x="69" y="140.07" fill="#4ac1d9"/><rect width="12.83" height="1.42" x="70.15" y="143.58" fill="#fff"/><rect width="8.76" height="1.42" x="70.15" y="147.08" fill="#fff"/><rect width="9.53" height="1.42" x="86.11" y="143.58" fill="#fff"/><rect width="5.8" height="1.42" x="98.15" y="143.58" fill="#fff"/><rect width="5.62" height="1.42" x="106.76" y="143.58" fill="#fff"/><rect width="16.72" height="1.42" x="81.41" y="147.08" fill="#fff"/><rect width="4.25" height="1.42" x="100.26" y="147.08" fill="#fff"/><rect width="8.14" height="1.42" x="77.35" y="150.58" fill="#fff"/><rect width="11.26" height="1.42" x="55.46" y="157.59" fill="#4ac1d9"/><rect width="11.26" height="1.42" x="55.46" y="161.1" fill="#4ac1d9"/><rect width="18.54" height="1.42" x="70.15" y="157.59" fill="#fff"/><rect width="10.14" height="1.42" x="70.15" y="161.1" fill="#fff"/><rect width="5.06" height="1.42" x="91.4" y="157.59" fill="#fff"/><rect width="6.26" height="1.42" x="98.62" y="157.59" fill="#fff"/><rect width="11.27" height="1.42" x="90.16" y="161.1" fill="#fff"/><rect width="4.79" height="1.42" x="82.55" y="161.1" fill="#fff"/><path fill="#aeaeae" d="M263.78 235.6l3.77 1.46 3.08-7.95-3.77-1.46a23.27 23.27 0 00-.22-9.7l3.7-1.64-3.44-7.8-3.7 1.63a23.19 23.19 0 00-5.28-5.51 19.72 19.72 0 00-1.67-1.15l-.07 0 1.47-3.77-8-3.09-1.46 3.78a21 21 0 00-2.58-.34 22.9 22.9 0 00-7.12.56l-1.64-3.7-7.8 3.44 1.63 3.7a23.3 23.3 0 00-6.7 7l-3.77-1.46-3.08 7.95 3.77 1.46a23.11 23.11 0 00.22 9.7l-3.7 1.63 3.44 7.81 3.7-1.63a23.3 23.3 0 007 6.7L230.16 247l8 3.08 1.46-3.77a22.81 22.81 0 009.7-.22l1.64 3.7 7.8-3.44-1.63-3.7A23.3 23.3 0 00263.78 235.6zm-21.17 4.93a17.54 17.54 0 01-5-1.12 17.26 17.26 0 1112.48-32.18 18.09 18.09 0 012.65 1.3 15.09 15.09 0 011.68 1.15 17.26 17.26 0 01-11.86 30.85zM262.1 125l1.59-1.93-4.07-3.36L258 121.61a14.5 14.5 0 00-5.73-1.75l-.25-2.48-5.25.5.24 2.49a14.21 14.21 0 00-4.25 2 12 12 0 00-1 .76l0 0-1.93-1.59-3.35 4.07 1.93 1.59a13.79 13.79 0 00-.7 1.45 14 14 0 00-1 4.29l-2.49.24.51 5.25 2.49-.24a14.21 14.21 0 002.82 5.29l-1.59 1.93 4.07 3.35 1.59-1.93a14.36 14.36 0 005.73 1.76l.24 2.48 5.25-.5-.24-2.5a14.25 14.25 0 005.3-2.82l1.93 1.6 3.35-4.07-1.93-1.59a14.81 14.81 0 00.7-1.45 14.41 14.41 0 001.05-4.29l2.49-.24-.51-5.25-2.49.24A14.28 14.28 0 00262.1 125zm-1.21 13.38a10.48 10.48 0 01-1.62 2.68 10.66 10.66 0 01-18.08-10.87 10.53 10.53 0 011.62-2.69 10.42 10.42 0 011.27-1.3 10.67 10.67 0 0116.81 12.18zM253.85 71.19l.89-1.08-2.28-1.88-.89 1.08a8.14 8.14 0 00-3.22-1l-.14-1.4-3 .29.14 1.4A8.18 8.18 0 00243 69.75c-.19.14-.38.28-.56.43l0 0-1.08-.89-1.89 2.28 1.09.89a8.86 8.86 0 00-.4.82 8.12 8.12 0 00-.59 2.4l-1.39.14.28 3 1.4-.14a8.13 8.13 0 001.58 3l-.89 1.09 2.29 1.88.89-1.08a8.14 8.14 0 003.22 1l.13 1.39 3-.28-.14-1.4a8.17 8.17 0 003-1.58l1.08.89 1.88-2.28-1.08-.9a6 6 0 00.39-.81 7.81 7.81 0 00.59-2.41l1.4-.13-.29-3-1.39.14A8.13 8.13 0 00253.85 71.19zm-.68 7.52a5.92 5.92 0 01-.9 1.5 6 6 0 01-10.16-6.1A6.2 6.2 0 01243 72.6a5.52 5.52 0 01.72-.73 4.63 4.63 0 01.56-.43 6 6 0 018.87 7.27zM232.91 55.42l.58-.7L232 53.48l-.59.71a5.17 5.17 0 00-2.11-.64l-.08-.92-1.94.19.09.92a5 5 0 00-1.56.74l-.37.28h0l-.71-.58-1.23 1.49.71.59a3.71 3.71 0 00-.26.53 5.46 5.46 0 00-.39 1.58l-.91.09.18 1.93.92-.09a5.35 5.35 0 001 1.94l-.58.71 1.5 1.24.58-.71a5.33 5.33 0 002.11.64l.09.91 1.93-.18-.09-.92a5.4 5.4 0 001.95-1l.71.58L234.2 62l-.71-.58c.1-.18.18-.35.26-.53a5.14 5.14 0 00.38-1.58l.92-.09-.19-1.93-.91.09A5.27 5.27 0 00232.91 55.42zm-.45 4.92a3.71 3.71 0 01-.59 1 3.92 3.92 0 01-6.65-4 3.82 3.82 0 01.59-1 3.63 3.63 0 01.48-.48 2.33 2.33 0 01.36-.28 3.91 3.91 0 015.81 4.75zM281.74 161.09l1-1.26-2.66-2.18-1 1.26a9.19 9.19 0 00-3.74-1.14l-.15-1.63-3.43.33.16 1.63a9.33 9.33 0 00-2.78 1.32c-.22.15-.44.32-.65.49l0 0-1.26-1L265 161.55l1.26 1c-.17.31-.32.63-.46.95a9.42 9.42 0 00-.68 2.79l-1.63.16.34 3.42 1.62-.15a9.39 9.39 0 001.84 3.45l-1 1.26 2.66 2.18 1-1.25a9.39 9.39 0 003.75 1.14l.15 1.62 3.43-.33-.16-1.63a9.24 9.24 0 003.45-1.84l1.26 1 2.19-2.65-1.26-1c.17-.31.32-.62.46-.94a9.56 9.56 0 00.68-2.8l1.62-.16-.33-3.42-1.62.16A9.5 9.5 0 00281.74 161.09zm-.79 8.73a6.88 6.88 0 01-1.06 1.75 7 7 0 01-11.79-7.09 6.84 6.84 0 011-1.75 6.75 6.75 0 01.84-.85 5.34 5.34 0 01.65-.5A7 7 0 01281 169.82zM242.31 192.49l.73 0 .73-.08.29-1.56c.29 0 .58-.09.86-.15l.8 1.39c.47-.11.94-.24 1.4-.38v-1.59l.82-.31 1 1.21c.44-.19.88-.4 1.31-.63l-.29-1.57.74-.44 1.24 1c.41-.27.8-.55 1.18-.85l-.58-1.49c.23-.19.44-.38.66-.58l1.4.75c.35-.34.68-.69 1-1.06l-.84-1.35.54-.69 1.52.48q.4-.6.78-1.23l-1.07-1.18c.14-.25.27-.51.4-.77l1.58.2c.2-.45.38-.9.55-1.35l-1.27-1c.09-.28.17-.56.25-.84l1.59-.1c.11-.47.21-.94.29-1.43l-1.43-.7q.06-.44.09-.87l1.54-.39c0-.48 0-1 0-1.46l-1.54-.44c0-.14 0-.29 0-.43s0-.29 0-.43l1.44-.67c-.06-.49-.15-1-.24-1.44l-1.59-.14c-.07-.29-.14-.57-.22-.85l1.3-.92c-.16-.46-.32-.92-.51-1.36l-1.59.14c-.11-.26-.24-.53-.37-.78l1.1-1.15c-.23-.42-.48-.84-.74-1.25l-1.54.44c-.16-.24-.33-.47-.51-.7l.88-1.33c-.31-.38-.63-.74-1-1.09l-1.42.71-.64-.6.62-1.47c-.37-.31-.76-.61-1.15-.89l-1.27 1-.74-.47.35-1.56c-.43-.24-.86-.46-1.3-.67l-1.07 1.18-.81-.33.05-1.59c-.46-.16-.93-.3-1.4-.42l-.83 1.36c-.29-.07-.57-.13-.86-.18l-.24-1.57c-.48-.07-1-.12-1.45-.16l-.58 1.49c-.29 0-.58 0-.87 0l-.53-1.5-.73 0-.73.08-.29 1.57c-.29 0-.58.08-.86.14l-.8-1.38c-.47.11-.94.24-1.4.38v1.59c-.28.09-.55.2-.82.3l-1-1.2c-.45.19-.89.4-1.32.62l.29 1.57c-.25.14-.5.29-.74.45l-1.24-1c-.41.27-.8.56-1.18.86l.58 1.49c-.23.18-.44.38-.65.58l-1.41-.76c-.35.34-.68.7-1 1.07l.84 1.35q-.27.33-.54.69l-1.52-.49q-.41.6-.78 1.23l1.07 1.18c-.14.26-.27.51-.4.78l-1.58-.2c-.2.44-.38.89-.55 1.35l1.27 1c-.09.27-.17.55-.25.84l-1.59.09c-.11.47-.2 1-.28 1.43l1.42.71c0 .29-.07.57-.09.86l-1.54.4c0 .48 0 1 0 1.46l1.54.43c0 .15 0 .29 0 .44s0 .28.05.43l-1.45.66c.06.49.15 1 .24 1.44l1.59.15c.07.28.14.56.23.84l-1.31.92c.16.47.33.92.51 1.37l1.59-.15c.11.27.24.53.37.79l-1.1 1.14c.23.43.48.85.74 1.25l1.54-.44c.16.24.33.48.51.7l-.88 1.33c.31.38.63.75 1 1.1l1.43-.71c.2.2.41.4.63.59l-.62 1.47c.37.31.76.61 1.15.9l1.27-1 .74.47-.35 1.56c.43.24.86.45 1.3.66l1.07-1.18.81.33 0 1.6c.46.15.93.29 1.4.41l.83-1.35.86.17.24 1.58c.48.07 1 .12 1.45.15l.58-1.49c.29 0 .58 0 .87 0zm1.19-4.11l-.74-9.53a5.14 5.14 0 001.3-.5 5.51 5.51 0 00.84-.59l7.26 6.22A14.56 14.56 0 01243.5 188.38zm9.67-5.58l-7.26-6.22a5.22 5.22 0 00.75-2.28l9.53-.74A14.53 14.53 0 01253.17 182.8zm2.9-10.79l-9.53.74a5.12 5.12 0 00-1.09-2.14l6.21-7.26A14.51 14.51 0 01256.07 172zm-5.58-9.67l-6.22 7.26a5.17 5.17 0 00-2.28-.75l-.74-9.52A14.54 14.54 0 01250.49 162.34zm-10.79-2.89l.74 9.53a5 5 0 00-2.14 1.09L231 163.85A14.53 14.53 0 01239.7 159.45zM230 165l7.27 6.22a4.93 4.93 0 00-.73 2.08c0 .06 0 .13 0 .2l-9.53.74A14.56 14.56 0 01230 165zm-2.89 10.79l9.53-.74a5.19 5.19 0 001.09 2.14l-6.21 7.26A14.51 14.51 0 01227.13 175.82zm5.59 9.67l6.21-7.26A5.06 5.06 0 00241 179l.2 0 .74 9.53A14.5 14.5 0 01232.72 185.49zM256.37 113.67l.5 0 .5 0 .21-1.08.59-.1.55 1c.33-.07.65-.16 1-.26V112a5.37 5.37 0 00.56-.21l.72.84c.31-.14.61-.28.91-.44l-.21-1.08a5.48 5.48 0 00.52-.31l.85.69c.28-.19.56-.38.82-.59l-.4-1c.15-.12.3-.26.45-.4l1 .52c.24-.23.46-.48.69-.73l-.58-.93.37-.48 1 .33a9.33 9.33 0 00.55-.84l-.74-.82c.09-.17.19-.35.27-.53l1.09.14c.14-.31.27-.62.38-.94l-.88-.66c.07-.19.12-.38.18-.57l1.09-.07c.08-.33.15-.66.2-1l-1-.49a5.61 5.61 0 00.06-.59l1.07-.27c0-.34 0-.67 0-1l-1.06-.3c0-.1 0-.2 0-.3l0-.3 1-.46c-.05-.33-.11-.66-.17-1l-1.1-.1a5.47 5.47 0 00-.15-.58l.89-.64c-.1-.32-.22-.63-.34-.94l-1.1.1c-.08-.18-.17-.37-.26-.54l.76-.79c-.16-.3-.33-.58-.51-.86l-1.06.3c-.11-.16-.23-.33-.35-.48l.6-.92c-.21-.26-.43-.52-.66-.76l-1 .49-.44-.41.43-1c-.25-.22-.52-.42-.79-.62l-.88.66c-.17-.11-.33-.22-.51-.32l.24-1.07c-.29-.17-.59-.32-.89-.47l-.74.82-.56-.23 0-1.1c-.31-.11-.64-.2-1-.29l-.58.94a5.6 5.6 0 00-.59-.12l-.17-1.09c-.33 0-.66-.08-1-.1l-.39 1h-.6l-.37-1-.5 0-.51.06-.2 1.08c-.2 0-.39.06-.59.1l-.55-1-1 .26v1.1l-.56.21-.72-.83c-.31.13-.61.27-.91.43l.21 1.08-.52.31-.85-.69c-.28.19-.56.39-.82.6l.4 1-.45.4-1-.52c-.24.24-.47.48-.69.74l.58.93-.37.47-1-.33c-.2.28-.38.56-.55.85l.74.81c-.09.18-.19.36-.27.53l-1.09-.13c-.14.3-.27.62-.38.93l.88.66c-.07.19-.12.38-.18.58l-1.09.07c-.08.32-.15.65-.2 1l1 .49q0 .3-.06.6l-1.07.27c0 .33 0 .67 0 1l1.06.3c0 .1 0 .19 0 .3l0 .29-1 .46c.05.34.11.67.17 1l1.1.1c0 .19.09.39.15.58l-.89.63c.1.32.22.64.34 1l1.1-.11c.08.19.17.37.26.55l-.77.79c.17.29.34.58.52.86l1.06-.3.35.48-.6.92q.31.39.66.75l1-.49.44.41-.43 1a9.36 9.36 0 00.79.62l.88-.66.51.33-.24 1.07c.29.17.59.32.89.46l.74-.81.56.22 0 1.1a9.72 9.72 0 001 .29l.58-.93.59.12.17 1.08c.33 0 .66.09 1 .11l.39-1h.6zm.82-2.84l-.51-6.57a3.43 3.43 0 00.9-.35 3.32 3.32 0 00.58-.4l5 4.29A10 10 0 01257.19 110.83zm6.67-3.85l-5-4.29a3.37 3.37 0 00.52-1.57l6.57-.51A10 10 0 01263.86 107zm2-7.44l-6.57.51a3.6 3.6 0 00-.76-1.48l4.29-5A10 10 0 01265.86 99.54zM262 92.87l-4.29 5a3.61 3.61 0 00-1.57-.52l-.51-6.57A10 10 0 01262 92.87zm-7.44-2l.51 6.58a3.47 3.47 0 00-1.48.75l-5-4.29A10 10 0 01254.57 90.87zm-6.68 3.85l5 4.29a3.59 3.59 0 00-.5 1.44s0 .09 0 .14l-6.57.51A10 10 0 01247.89 94.72zm-2 7.45l6.57-.51a3.49 3.49 0 00.75 1.47l-4.28 5A10 10 0 01245.9 102.17zm3.85 6.67l4.29-5a3.49 3.49 0 001.43.5h.14l.52 6.58A10 10 0 01249.75 108.84zM217.23 159.25a5.44 5.44 0 00.57 0l.56-.05.23-1.21.66-.12.62 1.07c.37-.08.73-.18 1.09-.29v-1.23c.21-.08.42-.15.63-.24l.8.94c.35-.15.69-.31 1-.49l-.23-1.21c.2-.11.39-.23.58-.35l1 .77c.31-.21.62-.43.91-.66l-.45-1.15.51-.45 1.09.58c.26-.26.52-.54.77-.82l-.65-1.05c.14-.17.28-.35.41-.53l1.18.37a10.26 10.26 0 00.61-.95l-.83-.91c.11-.2.21-.4.31-.6l1.22.15a10.28 10.28 0 00.42-1l-1-.74c.07-.21.14-.43.19-.65l1.24-.08c.08-.36.16-.73.22-1.1l-1.11-.55c0-.22.06-.44.08-.67l1.19-.3c0-.38 0-.75 0-1.13l-1.19-.34c0-.11 0-.22 0-.33l0-.34L231 143c0-.38-.12-.75-.19-1.12l-1.23-.11c-.05-.22-.11-.44-.17-.65l1-.72c-.12-.35-.25-.71-.39-1l-1.23.11c-.09-.21-.19-.41-.29-.61l.86-.88c-.18-.33-.37-.66-.58-1l-1.19.34c-.12-.19-.26-.37-.39-.54l.67-1c-.23-.29-.48-.58-.74-.85l-1.11.55c-.15-.16-.32-.31-.49-.46l.48-1.14c-.28-.24-.58-.47-.89-.69l-1 .74-.57-.36.26-1.21c-.32-.18-.66-.35-1-.51l-.83.91-.62-.25 0-1.24c-.35-.12-.71-.23-1.07-.32l-.65 1.05-.67-.14-.19-1.21c-.37-.06-.74-.1-1.12-.13l-.44 1.16c-.22 0-.45 0-.68 0l-.41-1.16-.56 0-.56.05-.23 1.21-.66.12-.62-1.07c-.37.08-.73.18-1.09.29v1.23q-.32.1-.63.24l-.8-.94c-.35.15-.69.31-1 .49l.23 1.21c-.2.11-.39.23-.58.35l-1-.77c-.32.21-.62.43-.91.66l.44 1.15-.5.45-1.09-.58c-.26.26-.52.53-.77.82l.65 1.05c-.14.17-.28.35-.41.53l-1.18-.37a10.26 10.26 0 00-.61 1l.83.91c-.11.2-.21.4-.31.6l-1.22-.16q-.24.53-.42 1l1 .74c-.07.21-.14.43-.2.65l-1.23.07c-.08.37-.16.74-.22 1.11l1.11.55c0 .22-.06.44-.08.67l-1.19.3c0 .37 0 .75 0 1.13l1.19.34c0 .11 0 .22 0 .33l0 .34-1.12.51c.05.38.12.75.19 1.12l1.23.11c0 .22.11.44.17.65l-1 .71a9.58 9.58 0 00.39 1.06l1.23-.11c.09.2.18.41.29.61l-.86.88c.18.33.37.66.58 1l1.18-.34c.13.18.26.37.4.54l-.68 1c.24.29.49.58.75.85l1.1-.55.5.46-.48 1.13a10.15 10.15 0 00.89.7l1-.75.57.37-.27 1.21c.33.18.67.35 1 .51l.83-.91.62.25 0 1.24c.36.12.72.23 1.08.32l.65-1.05.66.14.19 1.21a10.64 10.64 0 001.12.12l.45-1.15c.22 0 .45 0 .67 0zm.93-3.18l-.58-7.37a3.77 3.77 0 001-.39 4.18 4.18 0 00.65-.45l5.62 4.81A11.24 11.24 0 01218.16 156.07zm7.48-4.31L220 146.94a3.91 3.91 0 00.58-1.76l7.37-.57A11.26 11.26 0 01225.64 151.76zm2.24-8.35l-7.38.57a3.85 3.85 0 00-.84-1.66l4.81-5.62A11.25 11.25 0 01227.88 143.41zm-4.32-7.49l-4.81 5.62A3.9 3.9 0 00217 141l-.57-7.38A11.26 11.26 0 01223.56 135.92zm-8.35-2.24l.58 7.38a4 4 0 00-1.66.84l-5.62-4.81A11.25 11.25 0 01215.21 133.68zM207.73 138l5.62 4.81a3.88 3.88 0 00-.57 1.61s0 .1 0 .15l-7.37.57A11.18 11.18 0 01207.73 138zm-2.24 8.34l7.37-.57a4 4 0 00.84 1.66l-4.8 5.62A11.2 11.2 0 01205.49 146.35zm4.32 7.49l4.81-5.62a4 4 0 001.61.56h.16l.57 7.38A11.26 11.26 0 01209.81 153.84z"/><rect width="10.65" height="1.6" x="56.11" y="38.79" fill="#4c4c4c"/><rect width="13.82" height="1.6" x="61.95" y="42.63" fill="#4c4c4c"/><path fill="#4c4c4c" d="M82,43.43a2,2,0,1,1-2-2A2.05,2.05,0,0,1,82,43.43Z"/><rect width="10.65" height="1.61" x="268.77" y="116.97" fill="#4c4c4c"/><rect width="13.82" height="1.6" x="274.6" y="120.81" fill="#4c4c4c"/><path fill="#4c4c4c" d="M294.62,121.61a2.05,2.05,0,1,1-2.05-2A2,2,0,0,1,294.62,121.61Z"/><rect width="10.65" height="1.6" x="178.92" y="298.64" fill="#4c4c4c"/><rect width="13.82" height="1.6" x="184.75" y="302.48" fill="#4c4c4c"/><circle cx="202.72" cy="303.28" r="2.05" fill="#4c4c4c"/><rect width="10.65" height="1.6" x="88" y="297.93" fill="#4c4c4c"/><rect width="13.82" height="1.6" x="93.84" y="301.76" fill="#4c4c4c"/><circle cx="111.8" cy="302.57" r="2.05" fill="#4c4c4c"/><rect width="10.65" height="1.6" x="242.96" y="255.48" fill="#4c4c4c"/><rect width="13.82" height="1.6" x="248.79" y="259.31" fill="#4c4c4c"/><path fill="#4c4c4c" d="M268.8,260.12a2,2,0,1,1-2-2.05A2,2,0,0,1,268.8,260.12Z"/><rect width="10.65" height="1.6" x="45.53" y="260.56" fill="#4c4c4c"/><rect width="13.82" height="1.6" x="36.53" y="256.72" fill="#4c4c4c"/><path fill="#4c4c4c" d="M30.33,257.52a2,2,0,1,1,2.05,2.05A2,2,0,0,1,30.33,257.52Z"/><rect width="55.67" height="20.03" x="37.57" y="184.43" fill="#4c4c4c"/><path fill="#fff" d="M306.64,194c-.31,1.55-.66,3.09-1,4.62l-.26-.23a8.12,8.12,0,0,0-4.78-1.36H281.72c-1.57,0-3.62.25-4.53,1.44a3.91,3.91,0,0,0-.47,2.9l0,33.18c0,3.52-1,6.22-3.08,8.21a12,12,0,0,1-8.09,2.92h-30v-4.4h30.15a7.51,7.51,0,0,0,4.94-1.74,6.8,6.8,0,0,0,1.77-5.1V202.24a8.11,8.11,0,0,1,1.3-6.39c1.61-2.1,4.31-3.16,8-3.16h18.4A11.34,11.34,0,0,1,306.64,194Z"/><rect width="62.04" height="28.36" x="135.91" y="173.66" fill="#e8e8e8"/><rect width="62.04" height="10.77" x="135.91" y="175.09" fill="#4c4c4c" opacity=".7"/><rect width="173.49" height="101.75" x="80.25" y="79.1" fill="#fff" rx="8.05"/><rect width="162.8" height="82.67" x="85.6" y="83.8" fill="#cfdbe5"/><path fill="#fff" fill-rule="evenodd" d="M101.18 196.15h131.5a2.94 2.94 0 012.93 2.93h0a2.94 2.94 0 01-2.93 2.94H101.18a3 3 0 01-2.94-2.94h0A3 3 0 01101.18 196.15zM266.53 202v-.11c0-6.28-5.72-11.38-12.78-11.38S241 195.63 241 201.91V202z"/><rect width="163.08" height="132.27" x="85.52" y="14.15" fill="#4c4c4c"/><rect width="81.73" height="2.01" x="89.25" y="17.86" fill="#ff7443"/><rect width="16.55" height="2.01" x="89.25" y="22.83" fill="#4ac1d9"/><rect width="35.38" height="2.01" x="89.25" y="27.79" fill="#fff"/><rect width="28.92" height="2.01" x="98.12" y="32.76" fill="#4ac1d9"/><rect width="28.92" height="2.01" x="98.12" y="37.72" fill="#4ac1d9"/><rect width="28.13" height="2.01" x="118.2" y="42.69" fill="#4ac1d9"/><rect width="52.41" height="2.01" x="116.14" y="22.83" fill="#fff"/><rect width="25.03" height="2.01" x="176.02" y="22.83" fill="#fff"/><rect width="33.79" height="2.01" x="210.56" y="22.83" fill="#fff"/><rect width="29.49" height="2.01" x="132.91" y="27.79" fill="#4ac1d9"/><rect width="16.88" height="2.01" x="135.87" y="32.76" fill="#fff"/><rect width="28.92" height="2.01" x="135.87" y="37.72" fill="#fff"/><rect width="32.14" height="2.01" x="160.79" y="32.76" fill="#fff"/><rect width="16.86" height="2.01" x="199.36" y="32.76" fill="#fff"/><rect width="20.89" height="2.01" x="223.46" y="32.76" fill="#fff"/><rect width="36.53" height="2.01" x="171.22" y="37.72" fill="#fff"/><rect width="10.91" height="2.01" x="213.21" y="37.72" fill="#fff"/><rect width="20.91" height="2.01" x="154.36" y="42.69" fill="#fff"/><rect width="28.92" height="2.01" x="98.12" y="52.63" fill="#4ac1d9"/><rect width="28.92" height="2.01" x="98.12" y="57.6" fill="#4ac1d9"/><rect width="16.88" height="2.01" x="135.87" y="52.63" fill="#fff"/><rect width="26.05" height="2.01" x="135.87" y="57.6" fill="#fff"/><rect width="24.71" height="2.01" x="160.79" y="52.63" fill="#fff"/><rect width="12.99" height="2.01" x="190.44" y="52.63" fill="#fff"/><rect width="16.07" height="2.01" x="209" y="52.63" fill="#fff"/><rect width="28.95" height="2.01" x="187.27" y="57.6" fill="#fff"/><rect width="28.92" height="2.01" x="98.12" y="62.56" fill="#4ac1d9"/><rect width="28.92" height="2.01" x="98.12" y="67.53" fill="#4ac1d9"/><rect width="16.88" height="2.01" x="135.87" y="62.56" fill="#fff"/><rect width="53.03" height="2.01" x="135.87" y="67.53" fill="#fff"/><rect width="32.14" height="2.01" x="160.79" y="62.56" fill="#fff"/><rect width="16.86" height="2.01" x="199.36" y="62.56" fill="#fff"/><rect width="20.89" height="2.01" x="223.46" y="62.56" fill="#fff"/><rect width="29.74" height="2.01" x="195.33" y="67.53" fill="#fff"/><rect width="12.31" height="2.01" x="167.72" y="57.6" fill="#fff"/><rect width="16.55" height="2.01" x="89.25" y="77.47" fill="#4ac1d9"/><rect width="35.38" height="2.01" x="89.25" y="82.43" fill="#fff"/><rect width="28.92" height="2.01" x="98.12" y="87.4" fill="#4ac1d9"/><rect width="28.92" height="2.02" x="98.12" y="92.36" fill="#4ac1d9"/><rect width="28.13" height="2.01" x="118.2" y="97.33" fill="#4ac1d9"/><rect width="29.08" height="2.01" x="116.14" y="77.47" fill="#fff"/><rect width="14.69" height="2.01" x="152.67" y="77.47" fill="#fff"/><rect width="46.71" height="2.01" x="176.86" y="77.47" fill="#fff"/><rect width="29.49" height="2.01" x="132.91" y="82.43" fill="#4ac1d9"/><rect width="32.95" height="2.01" x="135.87" y="87.4" fill="#fff"/><rect width="22.5" height="2.02" x="135.87" y="92.36" fill="#fff"/><rect width="24.49" height="2.01" x="176.86" y="87.4" fill="#fff"/><rect width="42.96" height="2.02" x="164.8" y="92.36" fill="#fff"/><rect width="10.91" height="2.02" x="213.21" y="92.36" fill="#fff"/><rect width="20.91" height="2.01" x="154.36" y="97.33" fill="#fff"/><rect width="38.93" height="2.01" x="179.92" y="97.33" fill="#fff"/><rect width="11.63" height="2.01" x="224.64" y="97.33" fill="#fff"/><rect width="28.92" height="2.01" x="98.12" y="107.27" fill="#4ac1d9"/><rect width="28.92" height="2.01" x="98.12" y="112.24" fill="#4ac1d9"/><rect width="47.62" height="2.01" x="135.87" y="107.27" fill="#fff"/><rect width="26.05" height="2.01" x="135.87" y="112.24" fill="#fff"/><rect width="12.99" height="2.01" x="190.44" y="107.27" fill="#fff"/><rect width="16.07" height="2.01" x="209" y="107.27" fill="#fff"/><rect width="28.95" height="2.01" x="187.27" y="112.24" fill="#fff"/><rect width="12.31" height="2.01" x="167.72" y="112.24" fill="#fff"/><rect width="16.55" height="2.01" x="89.25" y="120.38" fill="#4ac1d9"/><rect width="35.38" height="2.01" x="89.25" y="125.34" fill="#fff"/><rect width="28.92" height="2.01" x="98.12" y="130.32" fill="#4ac1d9"/><rect width="28.92" height="2.01" x="98.12" y="135.28" fill="#4ac1d9"/><rect width="28.13" height="2.01" x="118.2" y="140.25" fill="#4ac1d9"/><rect width="29.08" height="2.01" x="116.14" y="120.38" fill="#fff"/><rect width="14.69" height="2.01" x="152.67" y="120.38" fill="#fff"/><rect width="67.49" height="2.01" x="176.86" y="120.38" fill="#fff"/><rect width="29.49" height="2.01" x="132.91" y="125.34" fill="#4ac1d9"/><rect width="32.95" height="2.01" x="135.87" y="130.32" fill="#fff"/><rect width="22.5" height="2.01" x="135.87" y="135.28" fill="#fff"/><rect width="24.49" height="2.01" x="176.86" y="130.32" fill="#fff"/><rect width="14.89" height="2.01" x="207.77" y="130.32" fill="#fff"/><rect width="14.44" height="2.01" x="229.91" y="130.32" fill="#fff"/><rect width="42.96" height="2.01" x="164.8" y="135.28" fill="#fff"/><rect width="10.91" height="2.01" x="213.21" y="135.28" fill="#fff"/><rect width="20.91" height="2.01" x="154.36" y="140.25" fill="#fff"/><rect width="51.1" height="2.01" x="39.82" y="188.66" fill="#ff7443"/><rect width="10.35" height="2.01" x="39.82" y="193.64" fill="#4ac1d9"/><rect width="22.12" height="2.01" x="39.82" y="198.6" fill="#fff"/><rect width="32.78" height="2.01" x="56.64" y="193.64" fill="#fff"/><rect width="18.44" height="2.01" x="67.12" y="198.6" fill="#4ac1d9"/><rect width="86.82" height="21.81" x="157.54" y="134.75" fill="#ff7443"/><path fill="#cfdbe5" fill-rule="evenodd" d="M296.69,143c4.34.89,7.59,4.19,7.59,8.1h0c0,4-3.37,8.17-7.95,8.17H276.17a8.56,8.56,0,0,1-8.69-8.17h0c0-3.91,3.25-7.21,7.58-8.1v-.24c0-5,4.84-9.09,10.82-9.09s10.82,4.07,10.82,9.09A1.93,1.93,0,0,1,296.69,143Z"/><path fill="#fff" fill-rule="evenodd" d="M285.82,139.73c4.15.85,7.26,4,7.26,7.76h0a7.9,7.9,0,0,1-7.61,7.82h-19.3a8.19,8.19,0,0,1-8.32-7.82h0c0-3.75,3.1-6.91,7.26-7.76,0-.07,0-.15,0-.22,0-4.81,4.64-8.71,10.36-8.71s10.36,3.9,10.36,8.71Z"/><path fill="#cfdbe5" fill-rule="evenodd" d="M163.41,309.58c4.34.89,7.58,4.19,7.58,8.1h0c0,4-3.36,8.17-7.94,8.17H142.89a8.55,8.55,0,0,1-8.69-8.17h0c0-3.91,3.24-7.21,7.58-8.1v-.23c0-5,4.84-9.09,10.82-9.09s10.82,4.07,10.82,9.09C163.42,309.43,163.41,309.5,163.41,309.58Z"/><path fill="#fff" fill-rule="evenodd" d="M152.54,306.33c4.15.86,7.26,4,7.26,7.76h0a7.9,7.9,0,0,1-7.61,7.82h-19.3a8.19,8.19,0,0,1-8.32-7.82h0c0-3.74,3.1-6.9,7.25-7.76v-.22c0-4.81,4.64-8.71,10.36-8.71s10.36,3.9,10.36,8.71Z"/><path fill="#cfdbe5" fill-rule="evenodd" d="M49.24,156.12c3.77.77,6.6,3.64,6.6,7h0a7.18,7.18,0,0,1-6.92,7.11H31.38a7.44,7.44,0,0,1-7.56-7.11h0c0-3.4,2.82-6.27,6.6-7,0-.07,0-.14,0-.21,0-4.37,4.22-7.91,9.42-7.91s9.41,3.54,9.41,7.91Z"/><path fill="#fff" fill-rule="evenodd" d="M40.8,153c4,.83,7,3.89,7,7.52h0a7.66,7.66,0,0,1-7.38,7.58H21.76a7.94,7.94,0,0,1-8.06-7.58h0c0-3.63,3-6.69,7-7.52v-.22c0-4.65,4.49-8.43,10-8.43s10,3.78,10,8.43Z"/><rect width="45.18" height="22.29" x="258.47" y="182.3" fill="#4c4c4c"/><rect width="181.71" height="68.63" x="58.95" y="223.09" fill="#e8e8e8" rx="5.44"/><rect width="11.77" height="11.77" x="65.36" y="229.58" fill="#fff" rx="2.32"/><rect width="11.77" height="11.77" x="79.67" y="229.58" fill="#fff" rx="2.32"/><rect width="11.77" height="11.77" x="93.96" y="229.58" fill="#fff" rx="2.32"/><rect width="11.77" height="11.77" x="108.27" y="229.58" fill="#fff" rx="2.32"/><rect width="11.77" height="11.77" x="122.57" y="229.58" fill="#fff" rx="2.32"/><rect width="11.77" height="11.77" x="136.86" y="229.58" fill="#fff" rx="2.32"/><rect width="11.77" height="11.77" x="151.17" y="229.58" fill="#fff" rx="2.32"/><rect width="11.77" height="11.77" x="165.46" y="229.58" fill="#fff" rx="2.32"/><rect width="11.77" height="11.77" x="179.76" y="229.58" fill="#fff" rx="2.32"/><rect width="11.77" height="11.77" x="194.06" y="229.58" fill="#fff" rx="2.32"/><rect width="11.77" height="11.77" x="208.36" y="229.58" fill="#fff" rx="2.32"/><rect width="11.77" height="11.77" x="222.66" y="229.58" fill="#fff" rx="2.32"/><rect width="11.77" height="11.77" x="65.36" y="244.2" fill="#fff" rx="2.32"/><rect width="11.77" height="11.77" x="79.67" y="244.2" fill="#fff" rx="2.32"/><rect width="11.77" height="11.77" x="93.96" y="244.2" fill="#fff" rx="2.32"/><rect width="11.77" height="11.77" x="108.27" y="244.2" fill="#fff" rx="2.32"/><rect width="11.77" height="11.77" x="122.57" y="244.2" fill="#fff" rx="2.32"/><rect width="11.77" height="11.77" x="136.86" y="244.2" fill="#fff" rx="2.32"/><rect width="11.77" height="11.77" x="151.17" y="244.2" fill="#fff" rx="2.32"/><rect width="11.77" height="11.77" x="165.46" y="244.2" fill="#fff" rx="2.32"/><rect width="11.77" height="11.77" x="179.76" y="244.2" fill="#fff" rx="2.32"/><rect width="11.77" height="11.77" x="194.06" y="244.2" fill="#fff" rx="2.32"/><rect width="11.77" height="11.77" x="208.36" y="244.2" fill="#fff" rx="2.32"/><rect width="11.77" height="11.77" x="222.66" y="244.2" fill="#fff" rx="2.32"/><rect width="11.77" height="11.77" x="65.36" y="258.82" fill="#fff" rx="2.32"/><rect width="11.77" height="11.77" x="79.67" y="258.82" fill="#fff" rx="2.32"/><rect width="11.77" height="11.77" x="93.96" y="258.82" fill="#fff" rx="2.32"/><rect width="11.77" height="11.77" x="108.27" y="258.82" fill="#fff" rx="2.32"/><rect width="11.77" height="11.77" x="122.57" y="258.82" fill="#fff" rx="2.32"/><rect width="11.77" height="11.77" x="136.86" y="258.82" fill="#fff" rx="2.32"/><rect width="11.77" height="11.77" x="151.17" y="258.82" fill="#fff" rx="2.32"/><rect width="11.77" height="11.77" x="165.46" y="258.82" fill="#fff" rx="2.32"/><rect width="11.77" height="11.77" x="179.76" y="258.82" fill="#fff" rx="2.32"/><rect width="11.77" height="11.77" x="194.06" y="258.82" fill="#fff" rx="2.32"/><rect width="11.77" height="11.77" x="66.71" y="230.92" fill="#e8e8e8" rx="2.21"/><rect width="11.77" height="11.77" x="81.01" y="230.92" fill="#e8e8e8" rx="2.21"/><rect width="11.77" height="11.77" x="95.31" y="230.92" fill="#e8e8e8" rx="2.21"/><rect width="11.77" height="11.77" x="109.61" y="230.92" fill="#e8e8e8" rx="2.21"/><rect width="11.77" height="11.77" x="123.91" y="230.92" fill="#e8e8e8" rx="2.21"/><rect width="11.77" height="11.77" x="138.21" y="230.92" fill="#e8e8e8" rx="2.21"/><rect width="11.77" height="11.77" x="152.51" y="230.92" fill="#e8e8e8" rx="2.21"/><rect width="11.77" height="11.77" x="166.81" y="230.92" fill="#e8e8e8" rx="2.21"/><rect width="11.77" height="11.77" x="181.11" y="230.92" fill="#e8e8e8" rx="2.21"/><rect width="11.77" height="11.77" x="195.41" y="230.92" fill="#e8e8e8" rx="2.21"/><rect width="11.77" height="11.77" x="209.71" y="230.92" fill="#e8e8e8" rx="2.21"/><rect width="11.77" height="11.77" x="224.01" y="230.92" fill="#e8e8e8" rx="2.21"/><rect width="11.77" height="11.77" x="66.71" y="245.54" fill="#e8e8e8" rx="2.21"/><rect width="11.77" height="11.77" x="81.01" y="245.54" fill="#e8e8e8" rx="2.21"/><rect width="11.77" height="11.77" x="95.31" y="245.54" fill="#e8e8e8" rx="2.21"/><rect width="11.77" height="11.77" x="109.61" y="245.54" fill="#e8e8e8" rx="2.21"/><rect width="11.77" height="11.77" x="123.91" y="245.54" fill="#e8e8e8" rx="2.21"/><rect width="11.77" height="11.77" x="138.21" y="245.54" fill="#e8e8e8" rx="2.21"/><rect width="11.77" height="11.77" x="152.51" y="245.54" fill="#e8e8e8" rx="2.21"/><rect width="11.77" height="11.77" x="166.81" y="245.54" fill="#e8e8e8" rx="2.21"/><rect width="11.77" height="11.77" x="181.11" y="245.54" fill="#e8e8e8" rx="2.21"/><rect width="11.77" height="11.77" x="195.41" y="245.54" fill="#e8e8e8" rx="2.21"/><rect width="11.77" height="11.77" x="209.71" y="245.54" fill="#e8e8e8" rx="2.21"/><rect width="11.77" height="11.77" x="224.01" y="245.54" fill="#e8e8e8" rx="2.21"/><rect width="11.77" height="11.77" x="66.71" y="260.16" fill="#e8e8e8" rx="2.21"/><rect width="11.77" height="11.77" x="81.01" y="260.16" fill="#e8e8e8" rx="2.21"/><rect width="11.77" height="11.77" x="95.31" y="260.16" fill="#e8e8e8" rx="2.21"/><rect width="11.77" height="11.77" x="109.61" y="260.16" fill="#e8e8e8" rx="2.21"/><rect width="11.77" height="11.77" x="123.91" y="260.16" fill="#e8e8e8" rx="2.21"/><rect width="11.77" height="11.77" x="138.21" y="260.16" fill="#e8e8e8" rx="2.21"/><rect width="11.77" height="11.77" x="152.51" y="260.16" fill="#e8e8e8" rx="2.21"/><rect width="11.77" height="11.77" x="166.81" y="260.16" fill="#e8e8e8" rx="2.21"/><rect width="11.77" height="11.77" x="181.11" y="260.16" fill="#e8e8e8" rx="2.21"/><rect width="11.77" height="11.77" x="195.41" y="260.16" fill="#e8e8e8" rx="2.21"/><rect width="11.77" height="11.77" x="209.71" y="260.16" fill="#e8e8e8" rx="2.21"/><rect width="11.77" height="11.77" x="224.01" y="260.16" fill="#e8e8e8" rx="2.21"/><rect width="11.77" height="11.77" x="66.71" y="275.37" fill="#e8e8e8" rx="2.21"/><rect width="11.77" height="11.77" x="81.01" y="275.37" fill="#e8e8e8" rx="2.21"/><rect width="11.77" height="11.77" x="95.31" y="275.37" fill="#e8e8e8" rx="2.21"/><rect width="11.77" height="11.77" x="109.61" y="275.37" fill="#e8e8e8" rx="2.21"/><rect width="68.97" height="11.77" x="123.91" y="275.37" fill="#e8e8e8" rx="2.21"/><rect width="11.77" height="11.77" x="195.41" y="275.37" fill="#e8e8e8" rx="2.21"/><rect width="11.77" height="11.77" x="209.71" y="275.37" fill="#e8e8e8" rx="2.21"/><rect width="11.77" height="11.77" x="224.01" y="275.37" fill="#e8e8e8" rx="2.21"/><rect width="11.77" height="11.77" x="66.71" y="230.92" fill="#e8e8e8" rx="2.21"/><rect width="11.77" height="11.77" x="81.01" y="230.92" fill="#e8e8e8" rx="2.21"/><rect width="11.77" height="11.77" x="95.31" y="230.92" fill="#e8e8e8" rx="2.21"/><rect width="11.77" height="11.77" x="109.61" y="230.92" fill="#e8e8e8" rx="2.21"/><rect width="11.77" height="11.77" x="123.91" y="230.92" fill="#e8e8e8" rx="2.21"/><rect width="11.77" height="11.77" x="138.21" y="230.92" fill="#e8e8e8" rx="2.21"/><rect width="11.77" height="11.77" x="152.51" y="230.92" fill="#e8e8e8" rx="2.21"/><rect width="11.77" height="11.77" x="166.81" y="230.92" fill="#e8e8e8" rx="2.21"/><rect width="11.77" height="11.77" x="181.11" y="230.92" fill="#e8e8e8" rx="2.21"/><rect width="11.77" height="11.77" x="195.41" y="230.92" fill="#e8e8e8" rx="2.21"/><rect width="11.77" height="11.77" x="209.71" y="230.92" fill="#e8e8e8" rx="2.21"/><rect width="11.77" height="11.77" x="224.01" y="230.92" fill="#e8e8e8" rx="2.21"/><rect width="11.77" height="11.77" x="66.71" y="245.54" fill="#e8e8e8" rx="2.21"/><rect width="11.77" height="11.77" x="81.01" y="245.54" fill="#e8e8e8" rx="2.21"/><rect width="11.77" height="11.77" x="95.31" y="245.54" fill="#e8e8e8" rx="2.21"/><rect width="11.77" height="11.77" x="109.61" y="245.54" fill="#e8e8e8" rx="2.21"/><rect width="11.77" height="11.77" x="123.91" y="245.54" fill="#e8e8e8" rx="2.21"/><rect width="11.77" height="11.77" x="138.21" y="245.54" fill="#e8e8e8" rx="2.21"/><rect width="11.77" height="11.77" x="152.51" y="245.54" fill="#e8e8e8" rx="2.21"/><rect width="11.77" height="11.77" x="166.81" y="245.54" fill="#e8e8e8" rx="2.21"/><rect width="11.77" height="11.77" x="181.11" y="245.54" fill="#e8e8e8" rx="2.21"/><rect width="11.77" height="11.77" x="195.41" y="245.54" fill="#e8e8e8" rx="2.21"/><rect width="11.77" height="11.77" x="209.71" y="245.54" fill="#e8e8e8" rx="2.21"/><rect width="11.77" height="11.77" x="224.01" y="245.54" fill="#e8e8e8" rx="2.21"/><rect width="11.77" height="11.77" x="66.71" y="260.16" fill="#e8e8e8" rx="2.21"/><rect width="11.77" height="11.77" x="81.01" y="260.16" fill="#e8e8e8" rx="2.21"/><rect width="11.77" height="11.77" x="95.31" y="260.16" fill="#e8e8e8" rx="2.21"/><rect width="11.77" height="11.77" x="109.61" y="260.16" fill="#e8e8e8" rx="2.21"/><rect width="11.77" height="11.77" x="123.91" y="260.16" fill="#e8e8e8" rx="2.21"/><rect width="11.77" height="11.77" x="138.21" y="260.16" fill="#e8e8e8" rx="2.21"/><rect width="11.77" height="11.77" x="152.51" y="260.16" fill="#e8e8e8" rx="2.21"/><rect width="11.77" height="11.77" x="166.81" y="260.16" fill="#e8e8e8" rx="2.21"/><rect width="11.77" height="11.77" x="181.11" y="260.16" fill="#e8e8e8" rx="2.21"/><rect width="11.77" height="11.77" x="195.41" y="260.16" fill="#e8e8e8" rx="2.21"/><rect width="11.77" height="11.77" x="209.71" y="260.16" fill="#e8e8e8" rx="2.21"/><rect width="11.77" height="11.77" x="224.01" y="260.16" fill="#e8e8e8" rx="2.21"/><rect width="11.77" height="11.77" x="66.71" y="275.37" fill="#e8e8e8" rx="2.21"/><rect width="11.77" height="11.77" x="81.01" y="275.37" fill="#e8e8e8" rx="2.21"/><rect width="11.77" height="11.77" x="95.31" y="275.37" fill="#e8e8e8" rx="2.21"/><rect width="11.77" height="11.77" x="109.61" y="275.37" fill="#e8e8e8" rx="2.21"/><rect width="68.97" height="11.77" x="123.91" y="275.37" fill="#e8e8e8" rx="2.21"/><rect width="11.77" height="11.77" x="195.41" y="275.37" fill="#e8e8e8" rx="2.21"/><rect width="11.77" height="11.77" x="209.71" y="275.37" fill="#e8e8e8" rx="2.21"/><rect width="11.77" height="11.77" x="224.01" y="275.37" fill="#e8e8e8" rx="2.21"/><rect width="11.77" height="11.77" x="208.36" y="258.82" fill="#fff" rx="2.32"/><rect width="11.77" height="11.77" x="222.66" y="258.82" fill="#fff" rx="2.32"/><rect width="11.77" height="11.77" x="65.36" y="274.03" fill="#fff" rx="2.32"/><rect width="11.77" height="11.77" x="79.67" y="274.03" fill="#fff" rx="2.32"/><rect width="11.77" height="11.77" x="93.96" y="274.03" fill="#fff" rx="2.32"/><rect width="11.77" height="11.77" x="108.27" y="274.03" fill="#fff" rx="2.32"/><rect width="68.97" height="11.77" x="122.57" y="274.03" fill="#fff" rx="2.32"/><rect width="11.77" height="11.77" x="194.06" y="274.03" fill="#fff" rx="2.32"/><rect width="11.77" height="11.77" x="208.36" y="274.03" fill="#fff" rx="2.32"/><rect width="11.77" height="11.77" x="222.66" y="274.03" fill="#fff" rx="2.32"/><rect width="11.77" height="11.77" x="65.36" y="229.58" fill="#fff" rx="2.32"/><rect width="11.77" height="11.77" x="79.67" y="229.58" fill="#fff" rx="2.32"/><rect width="11.77" height="11.77" x="93.96" y="229.58" fill="#fff" rx="2.32"/><rect width="11.77" height="11.77" x="108.27" y="229.58" fill="#fff" rx="2.32"/><rect width="11.77" height="11.77" x="122.57" y="229.58" fill="#fff" rx="2.32"/><rect width="11.77" height="11.77" x="136.86" y="229.58" fill="#fff" rx="2.32"/><rect width="11.77" height="11.77" x="151.17" y="229.58" fill="#fff" rx="2.32"/><rect width="11.77" height="11.77" x="165.46" y="229.58" fill="#fff" rx="2.32"/><rect width="11.77" height="11.77" x="179.76" y="229.58" fill="#fff" rx="2.32"/><rect width="11.77" height="11.77" x="194.06" y="229.58" fill="#fff" rx="2.32"/><rect width="11.77" height="11.77" x="208.36" y="229.58" fill="#fff" rx="2.32"/><rect width="11.77" height="11.77" x="222.66" y="229.58" fill="#fff" rx="2.32"/><rect width="11.77" height="11.77" x="65.36" y="244.2" fill="#fff" rx="2.32"/><rect width="11.77" height="11.77" x="79.67" y="244.2" fill="#fff" rx="2.32"/><rect width="11.77" height="11.77" x="93.96" y="244.2" fill="#fff" rx="2.32"/><rect width="11.77" height="11.77" x="108.27" y="244.2" fill="#fff" rx="2.32"/><rect width="11.77" height="11.77" x="122.57" y="244.2" fill="#fff" rx="2.32"/><rect width="11.77" height="11.77" x="136.86" y="244.2" fill="#fff" rx="2.32"/><rect width="11.77" height="11.77" x="151.17" y="244.2" fill="#fff" rx="2.32"/><rect width="11.77" height="11.77" x="165.46" y="244.2" fill="#fff" rx="2.32"/><rect width="11.77" height="11.77" x="179.76" y="244.2" fill="#fff" rx="2.32"/><rect width="11.77" height="11.77" x="194.06" y="244.2" fill="#fff" rx="2.32"/><rect width="11.77" height="11.77" x="208.36" y="244.2" fill="#fff" rx="2.32"/><rect width="11.77" height="11.77" x="222.66" y="244.2" fill="#fff" rx="2.32"/><rect width="11.77" height="11.77" x="65.36" y="258.82" fill="#fff" rx="2.32"/><rect width="11.77" height="11.77" x="79.67" y="258.82" fill="#fff" rx="2.32"/><rect width="11.77" height="11.77" x="93.96" y="258.82" fill="#fff" rx="2.32"/><rect width="11.77" height="11.77" x="108.27" y="258.82" fill="#fff" rx="2.32"/><rect width="11.77" height="11.77" x="122.57" y="258.82" fill="#fff" rx="2.32"/><rect width="11.77" height="11.77" x="136.86" y="258.82" fill="#fff" rx="2.32"/><rect width="11.77" height="11.77" x="151.17" y="258.82" fill="#fff" rx="2.32"/><rect width="11.77" height="11.77" x="165.46" y="258.82" fill="#fff" rx="2.32"/><rect width="11.77" height="11.77" x="179.76" y="258.82" fill="#fff" rx="2.32"/><rect width="11.77" height="11.77" x="194.06" y="258.82" fill="#fff" rx="2.32"/><rect width="11.77" height="11.77" x="208.36" y="258.82" fill="#fff" rx="2.32"/><rect width="11.77" height="11.77" x="222.66" y="258.82" fill="#fff" rx="2.32"/><rect width="11.77" height="11.77" x="65.36" y="274.03" fill="#fff" rx="2.32"/><rect width="11.77" height="11.77" x="79.67" y="274.03" fill="#fff" rx="2.32"/><rect width="11.77" height="11.77" x="93.96" y="274.03" fill="#fff" rx="2.32"/><rect width="11.77" height="11.77" x="108.27" y="274.03" fill="#fff" rx="2.32"/><rect width="68.97" height="11.77" x="122.57" y="274.03" fill="#fff" rx="2.32"/><rect width="11.77" height="11.77" x="194.06" y="274.03" fill="#fff" rx="2.32"/><rect width="11.77" height="11.77" x="208.36" y="274.03" fill="#fff" rx="2.32"/><rect width="11.77" height="11.77" x="222.66" y="274.03" fill="#fff" rx="2.32"/><polygon fill="#fed65c" fill-rule="evenodd" points="209.53 207.1 88.53 207.15 88.56 218.16 209.53 218.12 209.53 207.1"/><polygon fill="#fed65c" fill-rule="evenodd" points="209.53 210.65 88.54 210.69 88.55 214.62 209.53 214.57 209.53 210.65"/><path fill="#fff5dc" fill-rule="evenodd" d="M79.67,212.68s8.71,5.48,8.89,5.48h0c.52,0,.94-.84.93-1.87s-.36-1.7-.82-1.81c.46-.13.82-.88.81-1.83s-.36-1.7-.82-1.82c.46-.12.82-.87.81-1.82s-.42-1.86-.94-1.86C88.35,207.15,79.67,212.68,79.67,212.68Z"/><polygon fill="#4c4c4c" fill-rule="evenodd" points="83.91 215.3 83.9 210.04 79.67 212.68 83.91 215.3"/><rect width="2.75" height="11.06" x="209.53" y="207.1" fill="#4c4c4c"/><path fill="#ff7443" fill-rule="evenodd" d="M221.13,207.1h-8.86v11.06h8.86a1.81,1.81,0,0,0,1.82-1.82v-7.42A1.82,1.82,0,0,0,221.13,207.1Z"/><rect width="40.95" height="2.01" x="260.37" y="187.71" fill="#ff7443"/><rect width="8.29" height="2.01" x="260.37" y="192.68" fill="#4ac1d9"/><rect width="17.73" height="2.01" x="260.37" y="197.64" fill="#fff"/><rect width="26.26" height="2.01" x="273.85" y="192.68" fill="#fff"/><rect width="14.78" height="2.01" x="282.25" y="197.64" fill="#4ac1d9"/><rect width="81.57" height="2.01" x="160.89" y="138.52" fill="#fff"/><rect width="16.52" height="2.01" x="160.89" y="143.5" fill="#4ac1d9"/><rect width="35.31" height="2.01" x="160.89" y="148.46" fill="#fff"/><rect width="52.31" height="2.01" x="187.73" y="143.5" fill="#fff"/><rect width="29.43" height="2.01" x="204.46" y="148.46" fill="#4ac1d9"/></g></svg>